# xmcd
#
# Track frame offsets: 
#        150
#        23550
#        48982
#        85987
#
# Disc length: 1421 seconds
#
# Revision: 1
# Processed by: cddbd v1.5.2PL0 Copyright (c) Steve Scherf et al.
# Submitted via: ExactAudioCopy v0.95b4
#
DISCID=24058b04
DTITLE=Bon Jovi - Wanted Dead Or Alive (Japanese CD Single)
DYEAR=1986
DGENRE=Rock
TTITLE0=Wanted Dead Or Alive (Single Version)
TTITLE1=Wanted Dead Or Alive (Acoustic Version)
TTITLE2=Wanted Dead Or Alive (Live Version)
TTITLE3=Edge Of A Broken Heart
EXTD=
EXTT0=
EXTT1=
EXTT2=
EXTT3=
PLAYORDER=
